<?xml version="1.0" standalone="no"?><!DOCTYPE svg PUBLIC "-//W3C//DTD SVG 1.1//EN" "http://www.w3.org/Graphics/SVG/1.1/DTD/svg11.dtd"><svg t="1697080664042" class="icon" viewBox="0 0 1024 1024" version="1.1" xmlns="http://www.w3.org/2000/svg" p-id="9039" xmlns:xlink="http://www.w3.org/1999/xlink" width="128" height="128"><path d="M602.517333 490.666667l150.826667 150.848a42.666667 42.666667 0 0 1 0 60.330666L723.2 732.032a42.666667 42.666667 0 0 1-60.330667 0L512 581.184l-150.848 150.826667a42.666667 42.666667 0 0 1-60.330667 0L270.634667 701.866667a42.666667 42.666667 0 0 1 0-60.330667L421.482667 490.666667l-150.826667-150.848a42.666667 42.666667 0 0 1 0-60.330667l30.165333-30.186667a42.666667 42.666667 0 0 1 60.330667 0L512 400.149333l150.848-150.826666a42.666667 42.666667 0 0 1 60.330667 0l30.186666 30.165333a42.666667 42.666667 0 0 1 0 60.330667L602.517333 490.666667z" fill="#ffffff" p-id="9040" data-spm-anchor-id="a313x.collections_detail.0.i6.7d6d3a81RGdRCs" class="selected"></path></svg>