<?xml version="1.0" standalone="no"?><!DOCTYPE svg PUBLIC "-//W3C//DTD SVG 1.1//EN" "http://www.w3.org/Graphics/SVG/1.1/DTD/svg11.dtd"><svg t="1700447114327" class="icon" viewBox="0 0 1024 1024" version="1.1" xmlns="http://www.w3.org/2000/svg" p-id="4297" xmlns:xlink="http://www.w3.org/1999/xlink" width="128" height="128"><path d="M234.666667 981.333333a160 160 0 0 1-160-160v-618.666666A160 160 0 0 1 234.666667 42.666667h384a160 160 0 0 1 160 160V448H874.666667a74.666667 74.666667 0 0 1 74.56 70.570667l0.106666 4.096v298.666666A160 160 0 0 1 789.333333 981.333333zM714.666667 202.666667a96 96 0 0 0-91.477334-95.893334L618.666667 106.666667H234.666667a96 96 0 0 0-96 96v618.666666A96 96 0 0 0 234.666667 917.333333h480zM874.666667 512h-96v405.333333h10.666666a96 96 0 0 0 96-96v-298.666666a10.666667 10.666667 0 0 0-10.666666-10.666667z m-394.666667 0a32 32 0 0 1 0 64h-234.666667a32 32 0 0 1 0-64h234.666667z m128-234.666667a32 32 0 0 1 0 64h-362.666667a32 32 0 0 1 0-64h362.666667z" fill="#aa69ff" p-id="4298"></path></svg>