<?xml version="1.0" standalone="no"?><!DOCTYPE svg PUBLIC "-//W3C//DTD SVG 1.1//EN" "http://www.w3.org/Graphics/SVG/1.1/DTD/svg11.dtd"><svg t="1696762710486" class="icon" viewBox="0 0 1024 1024" version="1.1" xmlns="http://www.w3.org/2000/svg" p-id="5721" xmlns:xlink="http://www.w3.org/1999/xlink" width="128" height="128"><path d="M249.685333 341.333333a21.333333 21.333333 0 0 1 13.568-30.122666l164.864-44.16-5.525333-20.608a21.333333 21.333333 0 0 1 15.082667-26.133334l61.824-16.554666a21.333333 21.333333 0 0 1 26.133333 15.082666l5.525333 20.608 164.842667-44.181333a21.333333 21.333333 0 0 1 11.050667 41.216L315.712 341.333333H789.333333a21.333333 21.333333 0 0 1 0 42.666667h-24.896l-35.84 430.208A42.666667 42.666667 0 0 1 686.08 853.333333H337.92a42.666667 42.666667 0 0 1-42.517333-39.125333L259.562667 384H234.666667a21.333333 21.333333 0 0 1 0-42.666667h15.018666zM448 490.666667a21.333333 21.333333 0 0 0-21.333333 21.333333v170.666667a21.333333 21.333333 0 0 0 42.666666 0v-170.666667a21.333333 21.333333 0 0 0-21.333333-21.333333z m128 0a21.333333 21.333333 0 0 0-21.333333 21.333333v170.666667a21.333333 21.333333 0 0 0 42.666666 0v-170.666667a21.333333 21.333333 0 0 0-21.333333-21.333333z" fill="#ffffff" p-id="5722"></path></svg>