<?xml version="1.0" standalone="no"?><!DOCTYPE svg PUBLIC "-//W3C//DTD SVG 1.1//EN" "http://www.w3.org/Graphics/SVG/1.1/DTD/svg11.dtd"><svg t="1697171761788" class="icon" viewBox="0 0 1024 1024" version="1.1" xmlns="http://www.w3.org/2000/svg" p-id="9491" data-spm-anchor-id="a313x.collections_detail.0.i13.7d6d3a81RGdRCs" xmlns:xlink="http://www.w3.org/1999/xlink" width="128" height="128"><path d="M455.594667 576h33.834666-33.834666z m76.501333 0h33.813333-33.813333z m-42.666667 42.666667v149.333333H341.333333a170.666667 170.666667 0 0 1-20.032-340.16 192 192 0 1 1 381.397334 0A170.688 170.688 0 0 1 682.666667 768h-150.613334l0.042667-1.066667V618.666667H618.666667v-1.386667a21.333333 21.333333 0 0 0 12.586666-36.266667l-105.408-105.429333a21.269333 21.269333 0 0 0-30.186666 0l-105.408 105.408A21.333333 21.333333 0 0 0 405.333333 617.429333V618.666667h84.096z" fill="#aa69ff" p-id="9492" data-spm-anchor-id="a313x.collections_detail.0.i11.7d6d3a81RGdRCs" class=""></path></svg>