<?xml version="1.0" standalone="no"?><!DOCTYPE svg PUBLIC "-//W3C//DTD SVG 1.1//EN" "http://www.w3.org/Graphics/SVG/1.1/DTD/svg11.dtd"><svg t="1693022551641" class="icon" viewBox="0 0 1024 1024" version="1.1" xmlns="http://www.w3.org/2000/svg" p-id="5013" xmlns:xlink="http://www.w3.org/1999/xlink" width="200" height="200"><path d="M846.367347 878.236735H177.632653c-45.97551 0-83.591837-37.616327-83.591837-83.591837v-449.306122c0-45.97551 37.616327-83.591837 83.591837-83.591837h668.734694c45.97551 0 83.591837 37.616327 83.591837 83.591837v449.306122c0 45.97551-37.616327 83.591837-83.591837 83.591837zM177.632653 303.542857c-22.987755 0-41.795918 18.808163-41.795918 41.795919v449.306122c0 22.987755 18.808163 41.795918 41.795918 41.795918h668.734694c22.987755 0 41.795918-18.808163 41.795918-41.795918v-449.306122c0-22.987755-18.808163-41.795918-41.795918-41.795919H177.632653z" fill="#ffffff" p-id="5014"></path><path d="M909.061224 460.277551H114.938776c-11.493878 0-20.897959-9.404082-20.89796-20.897959s9.404082-20.897959 20.89796-20.897959h794.122448c11.493878 0 20.897959 9.404082 20.89796 20.897959s-9.404082 20.897959-20.89796 20.897959zM426.840816 606.563265h-156.734694c-11.493878 0-20.897959-9.404082-20.897959-20.897959s9.404082-20.897959 20.897959-20.897959h156.734694c11.493878 0 20.897959 9.404082 20.89796 20.897959s-8.881633 20.897959-20.89796 20.897959zM426.840816 737.17551h-156.734694c-11.493878 0-20.897959-9.404082-20.897959-20.897959s9.404082-20.897959 20.897959-20.897959h156.734694c11.493878 0 20.897959 9.404082 20.89796 20.897959s-8.881633 20.897959-20.89796 20.897959zM769.567347 606.563265h-156.734694c-11.493878 0-20.897959-9.404082-20.897959-20.897959s9.404082-20.897959 20.897959-20.897959h156.734694c11.493878 0 20.897959 9.404082 20.897959 20.897959s-9.404082 20.897959-20.897959 20.897959zM769.567347 737.17551h-156.734694c-11.493878 0-20.897959-9.404082-20.897959-20.897959s9.404082-20.897959 20.897959-20.897959h156.734694c11.493878 0 20.897959 9.404082 20.897959 20.897959s-9.404082 20.897959-20.897959 20.897959z" fill="#ffffff" p-id="5015"></path><path d="M348.473469 292.04898c-11.493878 0-20.897959-9.404082-20.897959-20.89796v-104.489796c0-11.493878 9.404082-20.897959 20.897959-20.897959s20.897959 9.404082 20.89796 20.897959v104.489796c0 12.016327-8.881633 20.897959-20.89796 20.89796z" fill="#ffffff" p-id="5016"></path><path d="M691.2 292.04898c-11.493878 0-20.897959-9.404082-20.897959-20.89796v-104.489796c0-11.493878 9.404082-20.897959 20.897959-20.897959s20.897959 9.404082 20.897959 20.897959v104.489796c0 12.016327-9.404082 20.897959-20.897959 20.89796z" fill="#ffffff" p-id="5017"></path></svg>