<?xml version="1.0" standalone="no"?><!DOCTYPE svg PUBLIC "-//W3C//DTD SVG 1.1//EN" "http://www.w3.org/Graphics/SVG/1.1/DTD/svg11.dtd"><svg t="1685955471733" class="icon" viewBox="0 0 1024 1024" version="1.1" xmlns="http://www.w3.org/2000/svg" p-id="8886" xmlns:xlink="http://www.w3.org/1999/xlink" width="200" height="200"><path d="M953.2 374.9l-253-253c-39.8-39.8-104.8-39.8-144.6 0L447.2 230.3 302.6 85.7c-59.6-59.6-157.2-59.6-216.9 0-59.6 59.6-59.6 157.2 0 216.9l144.6 144.6-108.5 108.4c-39.8 39.8-39.8 104.8 0 144.6l253 253c39.8 39.8 104.8 39.8 144.6 0l433.8-433.8c39.8-39.7 39.8-104.8 0-144.5z m-758.8 224l93.8-93.8 29-29c16-16 16-41.9 0-57.9l-29-29-144.6-144.6c-27.9-27.9-27.9-73.2 0-101 27.9-27.9 73.2-27.9 101 0l144.6 144.6 29 29c16 16 41.9 16 57.9 0l29-29 93.8-93.8c15.9-15.9 42-15.9 57.9 0l42.3 42.3-462.4 462.5-42.3-42.3c-16-16-16-42 0-58z m686.3-122.8L778.8 578l-80.1-80.1c-15.9-15.9-42-15.9-57.9 0-15.9 15.9-15.9 42 0 57.9l80.1 80.1-86.9 87-80.1-80.1c-15.9-15.9-42-15.9-57.9 0-15.9 15.9-15.9 42 0 57.9l80.1 80.1-99.9 99.9c-15.9 15.9-42 15.9-57.9 0L294.6 757.1l462.5-462.5 123.6 123.6c15.9 15.9 15.9 42 0 57.9z" p-id="8887" fill="#94adcf"></path></svg>