<?xml version="1.0" standalone="no"?><!DOCTYPE svg PUBLIC "-//W3C//DTD SVG 1.1//EN" "http://www.w3.org/Graphics/SVG/1.1/DTD/svg11.dtd"><svg t="1693022025105" class="icon" viewBox="0 0 1024 1024" version="1.1" xmlns="http://www.w3.org/2000/svg" p-id="1522" xmlns:xlink="http://www.w3.org/1999/xlink" width="200" height="200"><path d="M300.352 186.08c0-44.928 36.496-81.28 81.44-81.28h264.432a81.36 81.36 0 0 1 81.424 81.28v0.208h74.128a81.36 81.36 0 0 1 81.44 81.28V584a19.2 19.2 0 0 1-38.416 0V267.584a42.96 42.96 0 0 0-43.024-42.88h-74.48a81.376 81.376 0 0 1-81.072 73.712H381.76a81.376 81.376 0 0 1-81.072-73.728h-74.48a42.96 42.96 0 0 0-43.024 42.88V841.92a42.96 42.96 0 0 0 43.024 42.896H516a19.2 19.2 0 1 1 0 38.4H226.224a81.36 81.36 0 0 1-81.424-81.28V267.568c0-44.944 36.48-81.28 81.424-81.28h74.128v-0.208z m81.44-42.88a42.96 42.96 0 0 0-43.04 42.88v31.04a42.96 42.96 0 0 0 43.04 42.896h264.432a42.96 42.96 0 0 0 43.024-42.88v-31.04a42.96 42.96 0 0 0-43.04-42.896H381.792z" fill="#ffffff" p-id="1523"></path><path d="M484.8 444a19.2 19.2 0 0 1 19.2-19.2h236a19.2 19.2 0 1 1 0 38.4H504a19.2 19.2 0 0 1-19.2-19.2zM484.8 668a19.2 19.2 0 0 1 19.2-19.2h192a19.2 19.2 0 1 1 0 38.4h-192a19.2 19.2 0 0 1-19.2-19.2zM280.8 396a19.2 19.2 0 0 1 19.2-19.2h96a19.2 19.2 0 0 1 19.2 19.2v96a19.2 19.2 0 0 1-19.2 19.2h-96a19.2 19.2 0 0 1-19.2-19.2v-96z m38.4 19.2v57.6h57.6v-57.6h-57.6zM280.8 624a19.2 19.2 0 0 1 19.2-19.2h96a19.2 19.2 0 0 1 19.2 19.2v96a19.2 19.2 0 0 1-19.2 19.2h-96a19.2 19.2 0 0 1-19.2-19.2v-96z m38.4 19.2v57.6h57.6v-57.6h-57.6zM917.584 669.792a19.2 19.2 0 0 1 0 27.152L710.16 904.368a51.2 51.2 0 0 1-72.416 0l-85.328-85.328a19.2 19.2 0 0 1 27.168-27.152l85.328 85.328a12.8 12.8 0 0 0 18.096 0l207.408-207.424a19.2 19.2 0 0 1 27.168 0z" fill="#ffffff" p-id="1524"></path></svg>