<?xml version="1.0" standalone="no"?><!DOCTYPE svg PUBLIC "-//W3C//DTD SVG 1.1//EN" "http://www.w3.org/Graphics/SVG/1.1/DTD/svg11.dtd"><svg t="1686021994154" class="icon" viewBox="0 0 1024 1024" version="1.1" xmlns="http://www.w3.org/2000/svg" p-id="5819" xmlns:xlink="http://www.w3.org/1999/xlink" width="200" height="200"><path d="M787.004114 77.291769H236.879949a38.645884 38.645884 0 0 1 0-77.291769h550.124165a38.645884 38.645884 0 0 1 0 77.291769z" fill="#94adcf" p-id="5820"></path><path d="M451.635129 1004.677058a114.507756 114.507756 0 0 1-114.314527-114.353172v-196.707552H260.879043a139.125184 139.125184 0 0 1-105.07816-230.213534l251.198249-289.457674a139.125184 139.125184 0 0 1 210.272257 0l250.966374 289.457674a139.125184 139.125184 0 0 1-105.039514 230.213534h-76.44156v196.707552a114.546401 114.546401 0 0 1-114.353172 114.353172z m-37.10005-349.706609v235.353437a37.215987 37.215987 0 0 0 37.10005 37.138695h120.652451a37.061403 37.061403 0 0 0 36.945465-37.138695v-235.353437a38.645884 38.645884 0 0 1 38.645885-38.645884h115.126089a61.833415 61.833415 0 0 0 46.800166-102.488885l-251.198248-289.457675a63.224667 63.224667 0 0 0-93.407103 0l-251.198249 289.457675a61.833415 61.833415 0 0 0 46.800166 102.488885h115.12609a38.645884 38.645884 0 0 1 38.645884 38.645884z" fill="#94adcf" p-id="5821"></path></svg>