<?xml version="1.0" standalone="no"?><!DOCTYPE svg PUBLIC "-//W3C//DTD SVG 1.1//EN" "http://www.w3.org/Graphics/SVG/1.1/DTD/svg11.dtd"><svg t="1693392806430" class="icon" viewBox="0 0 1024 1024" version="1.1" xmlns="http://www.w3.org/2000/svg" p-id="991" xmlns:xlink="http://www.w3.org/1999/xlink" width="128" height="128"><path d="M540.444444 719.644444l-17.066666-17.066666 180.622222-180.622222 17.066667 17.066666c48.355556 48.355556 128 54.044444 179.2 8.533334 55.466667-49.777778 56.888889-135.111111 5.688889-186.311112l-130.844445-93.866666-17.066667-17.066667-93.866666-130.844444C611.555556 68.266667 526.222222 69.688889 477.866667 125.155556c-45.511111 51.2-39.822222 130.844444 8.533333 179.2l17.066667 17.066666-182.044445 180.622222-17.066666-17.066666c-48.355556-48.355556-128-54.044444-179.2-8.533334C71.111111 526.222222 69.688889 611.555556 120.888889 662.755556l130.844444 93.866666 17.066667 17.066667 93.866667 130.844444c51.2 51.2 136.533333 49.777778 186.311111-5.688889 45.511111-51.2 39.822222-130.844444-8.533334-179.2z m-137.955555 145.066667c0-1.422222 0-1.422222 0 0l-93.866667-130.844444-17.066666-17.066667-130.844445-93.866667c-29.866667-29.866667-27.022222-78.222222 4.266667-105.244444 28.444444-24.177778 72.533333-19.911111 98.133333 7.111111l17.066667 17.066667 39.822222 39.822222L583.111111 321.422222l-39.822222-39.822222-17.066667-18.488889c-27.022222-27.022222-31.288889-69.688889-7.111111-98.133333 27.022222-32.711111 75.377778-34.133333 105.244445-4.266667l93.866666 130.844445 17.066667 17.066666 130.844444 93.866667c29.866667 29.866667 27.022222 78.222222-4.266666 105.244444-28.444444 24.177778-72.533333 19.911111-98.133334-7.111111L746.666667 483.555556l-39.822223-39.822223-264.533333 258.844445 39.822222 39.822222 17.066667 17.066667c27.022222 27.022222 31.288889 69.688889 7.111111 98.133333-25.6 34.133333-73.955556 35.555556-103.822222 7.111111z" fill="#404042" p-id="992"></path><path d="M540.444444 719.644444l-17.066666-17.066666 180.622222-180.622222 17.066667 17.066666c48.355556 48.355556 128 54.044444 179.2 8.533334 55.466667-49.777778 56.888889-135.111111 5.688889-186.311112l-130.844445-93.866666-8.533333-8.533334-41.244445 41.244445 8.533334 8.533333 130.844444 93.866667c29.866667 29.866667 27.022222 78.222222-4.266667 105.244444-28.444444 24.177778-72.533333 19.911111-98.133333-7.111111L745.244444 483.555556l-39.822222-39.822223-263.111111 258.844445 39.822222 39.822222 17.066667 17.066667c27.022222 27.022222 31.288889 69.688889 7.111111 98.133333-27.022222 32.711111-75.377778 34.133333-105.244444 4.266667l-93.866667-130.844445-8.533333-8.533333-39.822223 39.822222 8.533334 8.533333 93.866666 130.844445C412.444444 952.888889 497.777778 951.466667 547.555556 896c46.933333-48.355556 41.244444-128-7.111112-176.355556z" fill="#404042" p-id="993"></path></svg>