<?xml version="1.0" standalone="no"?><!DOCTYPE svg PUBLIC "-//W3C//DTD SVG 1.1//EN" "http://www.w3.org/Graphics/SVG/1.1/DTD/svg11.dtd"><svg t="1693392811600" class="icon" viewBox="0 0 1024 1024" version="1.1" xmlns="http://www.w3.org/2000/svg" p-id="1132" xmlns:xlink="http://www.w3.org/1999/xlink" width="128" height="128"><path d="M526.222222 668.444444v156.444445h56.888889V668.444444c0-8.533333 5.688889-14.222222 14.222222-14.222222h99.555556c8.533333 0 14.222222 5.688889 14.222222 14.222222v156.444445h56.888889V668.444444c0-39.822222-31.288889-71.111111-71.111111-71.111111h-99.555556c-39.822222 0-71.111111 31.288889-71.111111 71.111111z" fill="#404042" p-id="1133"></path><path d="M910.222222 327.111111c-8.533333-95.288889-183.466667-170.666667-398.222222-170.666667S122.311111 231.822222 113.777778 327.111111v376.888889C113.777778 802.133333 291.555556 881.777778 512 881.777778s398.222222-79.644444 398.222222-177.777778V327.111111z m-56.888889 199.111111v184.888889c-9.955556 64-159.288889 113.777778-341.333333 113.777778s-329.955556-49.777778-341.333333-113.777778V425.244444c69.688889 51.2 196.266667 86.755556 341.333333 86.755556s271.644444-34.133333 341.333333-86.755556V526.222222z m-341.333333-71.111111c-189.155556 0-341.333333-54.044444-341.333333-120.888889S322.844444 213.333333 512 213.333333s341.333333 54.044444 341.333333 120.888889S701.155556 455.111111 512 455.111111z" fill="#404042" p-id="1134"></path><path d="M708.266667 284.444444c-31.288889 0-56.888889 18.488889-56.888889 42.666667s25.6 42.666667 56.888889 42.666667 56.888889-18.488889 56.888889-42.666667-25.6-42.666667-56.888889-42.666667z m0 56.888889c-11.377778 0-21.333333-5.688889-21.333334-14.222222s9.955556-14.222222 21.333334-14.222222 21.333333 5.688889 21.333333 14.222222c-1.422222 8.533333-9.955556 14.222222-21.333333 14.222222z" fill="#404042" p-id="1135"></path></svg>